<svg xmlns="http://www.w3.org/2000/svg" viewBox="0 0 64 64">
  <defs>
    <linearGradient id="bg" x1="0" y1="0" x2="1" y2="1">
      <stop offset="0%" stop-color="#f7a23f"/>
      <stop offset="100%" stop-color="#db7821"/>
    </linearGradient>
  </defs>
  <rect width="64" height="64" rx="14" fill="url(#bg)"/>
  <g fill="#fff7ef">
    <circle cx="19" cy="22" r="6"/>
    <circle cx="30" cy="16" r="6"/>
    <circle cx="42" cy="16" r="6"/>
    <circle cx="53" cy="22" r="6"/>
    <path d="M32 47c-2.8 0-5.3-1.1-7.1-2.9-2.1-2.1-5.6-2.1-7.8 0-1.4 1.4-3.4 2.3-5.5 2.3-4.3 0-7.6-3.5-7.6-7.8 0-7.2 6.6-14.4 14.9-14.4 4.9 0 8.5 2.1 10.8 5.3 1 1.4 2.7 1.4 3.7 0 2.3-3.2 5.9-5.3 10.8-5.3 8.3 0 14.9 7.2 14.9 14.4 0 4.3-3.3 7.8-7.6 7.8-2.1 0-4.1-.9-5.5-2.3-2.2-2.1-5.7-2.1-7.8 0-1.8 1.8-4.3 2.9-7.1 2.9z"/>
  </g>
</svg>
